<?xml version="1.0" encoding="UTF-8" standalone="no"?>
<!-- Created with Inkscape (http://www.inkscape.org/) -->

<svg
   version="1.1"
   id="svg9"
   xml:space="preserve"
   width="360"
   height="78"
   viewBox="0 0 360 78"
   sodipodi:docname="alpeus_letr.svg"
   inkscape:version="1.1 (c68e22c387, 2021-05-23)"
   xmlns:inkscape="http://www.inkscape.org/namespaces/inkscape"
   xmlns:sodipodi="http://sodipodi.sourceforge.net/DTD/sodipodi-0.dtd"
   xmlns="http://www.w3.org/2000/svg"
   xmlns:svg="http://www.w3.org/2000/svg"><defs
     id="defs13"><clipPath
       clipPathUnits="userSpaceOnUse"
       id="clipPath25"><path
         d="M 0,0 H 1920 V 1080 H 0 Z"
         clip-rule="evenodd"
         id="path23" /></clipPath><linearGradient
       x1="-988.83386"
       y1="3526.5818"
       x2="-1194"
       y2="3686.0723"
       gradientUnits="userSpaceOnUse"
       gradientTransform="matrix(1.3333333,0,0,-1.3333333,4147.6883,516.97982)"
       spreadMethod="pad"
       id="linearGradient39"><stop
         style="stop-opacity:1;stop-color:#ffb755"
         offset="0"
         id="stop35" /><stop
         style="stop-opacity:1;stop-color:#db2314"
         offset="1"
         id="stop37" /></linearGradient><linearGradient
       x1="158.37256"
       y1="117.77972"
       x2="109.84381"
       y2="146.45355"
       gradientUnits="userSpaceOnUse"
       gradientTransform="matrix(1.3333333,0,0,-1.3333333,964.50689,516.97984)"
       spreadMethod="pad"
       id="linearGradient49"><stop
         style="stop-opacity:1;stop-color:#ffb755"
         offset="0"
         id="stop45" /><stop
         style="stop-opacity:1;stop-color:#db2314"
         offset="1"
         id="stop47" /></linearGradient><linearGradient
       x1="-1079.8221"
       y1="3526.5818"
       x2="-1194"
       y2="3686.0723"
       gradientUnits="userSpaceOnUse"
       gradientTransform="matrix(1.3333333,0,0,-1.3333333,4147.6883,516.97984)"
       spreadMethod="pad"
       id="linearGradient61"><stop
         style="stop-opacity:1;stop-color:#ffb755"
         offset="0"
         id="stop57" /><stop
         style="stop-opacity:1;stop-color:#db2314"
         offset="1"
         id="stop59" /></linearGradient><clipPath
       clipPathUnits="userSpaceOnUse"
       id="clipPath25-0"><path
         d="M 0,0 H 1920 V 1080 H 0 Z"
         clip-rule="evenodd"
         id="path23-1" /></clipPath></defs><sodipodi:namedview
     id="namedview11"
     pagecolor="#ffffff"
     bordercolor="#666666"
     borderopacity="1.0"
     inkscape:pageshadow="2"
     inkscape:pageopacity="0.0"
     inkscape:pagecheckerboard="true"
     showgrid="false"
     inkscape:zoom="1.28"
     inkscape:cx="396.48438"
     inkscape:cy="73.828125"
     inkscape:window-width="1920"
     inkscape:window-height="1017"
     inkscape:window-x="-8"
     inkscape:window-y="-8"
     inkscape:window-maximized="1"
     inkscape:current-layer="g15" /><g
     id="g15"
     inkscape:groupmode="layer"
     inkscape:label="logo"
     transform="matrix(1.3333333,0,0,1.3333333,0,3.6e-5)"><path
       d="M 2189.5958,569.15962 H 4109.5957 V 1649.1597 H 2189.5958 Z"
       style="fill:#ffffff;fill-opacity:1;fill-rule:nonzero;stroke:none"
       id="path17" /><g
       id="g19"
       transform="translate(-825.2478,-652.20592)"><g
         id="g21"
         clip-path="url(#clipPath25-0)"><g
           id="g27"
           transform="translate(961,698)"><path
             id="text31"
             style="font-variant:normal;font-weight:500;font-size:60px;font-family:Montserrat;-inkscape-font-specification:Montserrat-Medium;writing-mode:lr-tb;fill:#7e8caa;fill-opacity:1;fill-rule:nonzero;stroke:none;stroke-width:1.33333"
             transform="matrix(0.75000002,0,0,0.75000002,-986.76628,-703.73489)"
             d="m 1159.5078,881.51562 -21.1328,56.79688 h 9.3359 l 4.0137,-11.64062 h 22.3633 l 4.0137,11.64062 h 9.3359 l -21.1328,-56.79688 z m 46.1152,0 v 46.21094 c 0,3.41146 0.8464,6.05469 2.5391,7.92969 1.6927,1.875 4.0755,2.8125 7.1484,2.8125 h 4.8829 v -8.28125 h -3.2813 c -0.8333,0 -1.4844,-0.26042 -1.9531,-0.78125 -0.4688,-0.54687 -0.7031,-1.3151 -0.7031,-2.30469 v -45.58594 z m 84.8809,0 v 56.79688 h 8.6328 v -25.46875 c 0,-2.34375 0.6641,-4.16667 1.9922,-5.46875 1.3542,-1.30208 3.2552,-1.95313 5.7031,-1.95312 2.5261,0 4.4922,0.72915 5.8985,2.1875 1.4062,1.43229 2.1093,3.47656 2.1093,6.13281 v 24.57031 h 8.6329 v -24.60938 c 0,-5.26041 -1.198,-9.3229 -3.5938,-12.1875 -2.3958,-2.89062 -5.7812,-4.33593 -10.1562,-4.33593 -2.474,0 -4.6875,0.65104 -6.6407,1.95312 -1.529,1.03315 -2.8425,2.43297 -3.9453,4.1875 v -21.80469 z m -127.5977,12.73438 8.3379,24.17969 h -16.6757 z m 87.9825,2.92969 c -2.3698,0 -4.5183,0.65104 -6.4453,1.95312 -1.5161,1.00388 -2.8025,2.35239 -3.8672,4.03321 v -5.4004 h -8.6328 v 57.03126 h 8.6328 v -21.67579 c 0.8628,1.65315 2.031,2.98367 3.5156,3.98047 1.849,1.19792 4.0104,1.79688 6.4844,1.79688 2.9427,0 5.4557,-0.65104 7.539,-1.95313 2.0834,-1.32812 3.6719,-3.22916 4.7657,-5.70312 1.0937,-2.5 1.6406,-5.49479 1.6406,-8.98438 v -8.28125 c 0,-3.54166 -0.5339,-6.5625 -1.6016,-9.0625 -1.0677,-2.52604 -2.6302,-4.4401 -4.6875,-5.74218 -2.0312,-1.32814 -4.4791,-1.99219 -7.3437,-1.99219 z m 114.4277,0 c -3.6458,0 -6.7578,0.74219 -9.3359,2.22656 -2.5782,1.48437 -4.5443,3.64583 -5.8985,6.48437 -1.3541,2.83856 -2.0312,6.26303 -2.0312,10.27344 v 4.57032 c 0,3.85416 0.7031,7.14843 2.1094,9.88281 1.4062,2.70833 3.4505,4.76562 6.1328,6.17187 2.7083,1.40625 5.9505,2.10938 9.7265,2.10938 2.5521,0 5.0912,-0.52084 7.6172,-1.5625 2.5521,-1.06771 4.8438,-2.56511 6.875,-4.49219 l -5.664,-5.46875 c -1.224,1.11979 -2.6172,1.99219 -4.1797,2.61719 -1.5365,0.59896 -3.086,0.89843 -4.6485,0.89843 -3.151,0 -5.5859,-0.85937 -7.3047,-2.57812 -1.5794,-1.62808 -2.4119,-3.89903 -2.5175,-6.79688 h 25.3691 v -2.65624 c 0,-4.53126 -0.638,-8.42448 -1.9141,-11.67969 -1.276,-3.25521 -3.138,-5.72917 -5.5859,-7.42188 -2.4219,-1.71875 -5.3385,-2.57812 -8.75,-2.57812 z m 109.8711,0 c -3.5156,0 -6.4453,0.48177 -8.7891,1.44531 -2.3437,0.96354 -4.1276,2.39582 -5.3515,4.29688 -1.1979,1.90104 -1.7969,4.27083 -1.7969,7.10937 0,2.91667 0.612,5.15625 1.8359,6.71875 1.224,1.5625 2.7474,2.63021 4.5703,3.20312 1.8231,0.54689 4.1016,0.95053 6.836,1.21094 0.1042,0 0.2083,0.013 0.3125,0.0391 h 0.3125 l 0.8594,0.0781 0.8593,0.0781 c 2.1615,0.15624 3.8412,0.35156 5.0391,0.58593 1.1979,0.20834 2.1874,0.61198 2.9688,1.21094 0.8072,0.59896 1.2109,1.51042 1.2109,2.73437 0,1.71876 -0.7682,3.02083 -2.3047,3.90626 -1.5365,0.85937 -3.8021,1.28906 -6.7969,1.28906 -2.0573,0 -4.1666,-0.39063 -6.3281,-1.17188 -2.1354,-0.80729 -4.2708,-1.99219 -6.4062,-3.55468 l -5.1954,6.40624 c 1.5365,1.35418 3.2422,2.48698 5.1172,3.39844 1.875,0.91146 3.8802,1.60156 6.0156,2.07032 2.1356,0.4427 4.4011,0.66406 6.7969,0.66406 3.7761,0 6.9271,-0.49479 9.4531,-1.48438 2.5522,-0.98958 4.4662,-2.44791 5.7422,-4.375 1.2761,-1.92708 1.9141,-4.33594 1.9141,-7.22656 0,-3.25521 -0.6901,-5.72916 -2.0703,-7.42188 -1.3542,-1.6927 -3.0339,-2.82552 -5.0391,-3.39843 -1.9791,-0.57292 -4.4271,-0.97657 -7.3437,-1.21094 -0.078,-0.026 -0.1693,-0.0391 -0.2735,-0.0391 h -0.2343 c -0.1823,-0.026 -0.3776,-0.0391 -0.586,-0.0391 -0.1823,-0.026 -0.3515,-0.0521 -0.5078,-0.0781 -2.0833,-0.13021 -3.6849,-0.28646 -4.8047,-0.46875 -1.1198,-0.18229 -2.0573,-0.52082 -2.8125,-1.01563 -0.7291,-0.52083 -1.0937,-1.27604 -1.0937,-2.26562 0,-1.61458 0.651,-2.82552 1.9531,-3.63281 1.3281,-0.83334 3.2813,-1.25 5.8594,-1.25 1.8489,0 3.75,0.3125 5.7031,0.9375 1.9792,0.625 3.9453,1.54948 5.8984,2.77343 l 5.1953,-6.28906 c -1.6145,-1.14583 -3.3072,-2.10937 -5.0781,-2.89062 -1.7708,-0.78125 -3.6328,-1.36718 -5.5859,-1.75782 -1.9531,-0.39062 -3.9714,-0.58593 -6.0547,-0.58593 z m -73.0039,0.58593 v 24.72657 c 0,5.20833 1.2109,9.24479 3.6328,12.10937 2.4219,2.86459 5.8594,4.29688 10.3125,4.29688 2.6823,0 4.9349,-0.6901 6.7578,-2.07032 1.4913,-1.13424 2.646,-2.48322 3.4766,-4.04101 v 5.52539 h 8.5937 v -40.54688 h -8.5937 v 25.3125 c 0,2.42189 -0.6771,4.29688 -2.0313,5.625 -1.3541,1.3021 -3.2552,1.95313 -5.7031,1.95313 -2.474,0 -4.401,-0.71615 -5.7812,-2.14844 -1.3542,-1.43229 -2.0313,-3.46354 -2.0313,-6.09375 v -24.64844 z m -36.8672,7.22657 c 2.3438,0 4.2188,0.84635 5.625,2.53906 1.4063,1.69271 2.2266,4.07552 2.4609,7.14844 l 0.039,0.23437 h -17.2402 c 0.1203,-3.01348 0.9,-5.38915 2.3574,-7.10937 1.5885,-1.875 3.8411,-2.8125 6.7578,-2.8125 z m -117.2402,0.0391 c 2.4739,0 4.388,0.79427 5.7422,2.38281 1.3802,1.5625 2.0703,3.76302 2.0703,6.60156 v 8.24219 c 0,2.78646 -0.6901,4.94792 -2.0703,6.48438 -1.3542,1.53646 -3.2683,2.30468 -5.7422,2.30469 -1.5886,0 -2.9427,-0.29948 -4.0625,-0.89844 -1.1198,-0.625 -1.9792,-1.51042 -2.5782,-2.65625 -0.5729,-1.17188 -0.8593,-2.57813 -0.8593,-4.21875 V 912.6875 c 0,-1.61458 0.2864,-2.99479 0.8593,-4.14062 0.599,-1.14585 1.4584,-2.01823 2.5782,-2.61719 1.1198,-0.59896 2.4739,-0.89844 4.0625,-0.89844 z" /></g><g
           id="g33"
           transform="translate(2023,-3061)" /><g
           id="g43"
           transform="translate(829.30695,419.31104)" /><g
           id="g53"
           transform="translate(2023,-3061)" /></g></g></g></svg>
