<?xml version="1.0" encoding="UTF-8" standalone="no"?>
<!-- Created with Inkscape (http://www.inkscape.org/) -->

<svg
   version="1.1"
   id="svg9"
   xml:space="preserve"
   width="291"
   height="78"
   viewBox="0 0 291 78"
   sodipodi:docname="alpeus_letr-a.svg"
   inkscape:version="1.1 (c68e22c387, 2021-05-23)"
   xmlns:inkscape="http://www.inkscape.org/namespaces/inkscape"
   xmlns:sodipodi="http://sodipodi.sourceforge.net/DTD/sodipodi-0.dtd"
   xmlns="http://www.w3.org/2000/svg"
   xmlns:svg="http://www.w3.org/2000/svg"><defs
     id="defs13"><clipPath
       clipPathUnits="userSpaceOnUse"
       id="clipPath25"><path
         d="M 0,0 H 1920 V 1080 H 0 Z"
         clip-rule="evenodd"
         id="path23" /></clipPath><linearGradient
       x1="-988.83386"
       y1="3526.5818"
       x2="-1194"
       y2="3686.0723"
       gradientUnits="userSpaceOnUse"
       gradientTransform="matrix(1.3333333,0,0,-1.3333333,4147.6883,516.97982)"
       spreadMethod="pad"
       id="linearGradient39"><stop
         style="stop-opacity:1;stop-color:#ffb755"
         offset="0"
         id="stop35" /><stop
         style="stop-opacity:1;stop-color:#db2314"
         offset="1"
         id="stop37" /></linearGradient><linearGradient
       x1="158.37256"
       y1="117.77972"
       x2="109.84381"
       y2="146.45355"
       gradientUnits="userSpaceOnUse"
       gradientTransform="matrix(1.3333333,0,0,-1.3333333,964.50689,516.97984)"
       spreadMethod="pad"
       id="linearGradient49"><stop
         style="stop-opacity:1;stop-color:#ffb755"
         offset="0"
         id="stop45" /><stop
         style="stop-opacity:1;stop-color:#db2314"
         offset="1"
         id="stop47" /></linearGradient><linearGradient
       x1="-1079.8221"
       y1="3526.5818"
       x2="-1194"
       y2="3686.0723"
       gradientUnits="userSpaceOnUse"
       gradientTransform="matrix(1.3333333,0,0,-1.3333333,4147.6883,516.97984)"
       spreadMethod="pad"
       id="linearGradient61"><stop
         style="stop-opacity:1;stop-color:#ffb755"
         offset="0"
         id="stop57" /><stop
         style="stop-opacity:1;stop-color:#db2314"
         offset="1"
         id="stop59" /></linearGradient><clipPath
       clipPathUnits="userSpaceOnUse"
       id="clipPath25-0"><path
         d="M 0,0 H 1920 V 1080 H 0 Z"
         clip-rule="evenodd"
         id="path23-1" /></clipPath></defs><sodipodi:namedview
     id="namedview11"
     pagecolor="#ffffff"
     bordercolor="#666666"
     borderopacity="1.0"
     inkscape:pageshadow="2"
     inkscape:pageopacity="0.0"
     inkscape:pagecheckerboard="true"
     showgrid="false"
     inkscape:zoom="2.56"
     inkscape:cx="203.32031"
     inkscape:cy="94.335938"
     inkscape:window-width="1920"
     inkscape:window-height="1017"
     inkscape:window-x="-8"
     inkscape:window-y="-8"
     inkscape:window-maximized="1"
     inkscape:current-layer="g15" /><g
     id="g15"
     inkscape:groupmode="layer"
     inkscape:label="logo"
     transform="matrix(1.3333333,0,0,1.3333333,0,3.6e-5)"><path
       d="M 2189.5958,569.15962 H 4109.5957 V 1649.1597 H 2189.5958 Z"
       style="fill:#ffffff;fill-opacity:1;fill-rule:nonzero;stroke:none"
       id="path17" /><g
       id="g19"
       transform="translate(-876.22436,-652.79186)"><g
         id="g21"
         clip-path="url(#clipPath25-0)"><g
           id="g27"
           transform="translate(961,698)"><path
             id="text31"
             style="font-variant:normal;font-weight:500;font-size:60px;font-family:Montserrat;-inkscape-font-specification:Montserrat-Medium;writing-mode:lr-tb;fill:#7e8caa;fill-opacity:1;fill-rule:nonzero;stroke:none;stroke-width:1.33333"
             transform="matrix(0.75000002,0,0,0.75000002,-135.7522,-45.794107)"
             d="M 70.9375,4.2617188 V 50.472656 c 0,3.41146 0.846362,6.054688 2.539062,7.929688 1.692703,1.875 4.075538,2.8125 7.148438,2.8125 h 4.882812 v -8.28125 h -3.28125 c -0.8333,0 -1.484424,-0.26042 -1.953124,-0.78125 -0.468803,-0.54687 -0.703126,-1.315098 -0.703126,-2.304688 V 4.2617188 Z m 84.88086,0 V 61.058594 h 8.63281 v -25.46875 c 0,-2.34375 0.66409,-4.16667 1.99219,-5.46875 1.3542,-1.30208 3.25522,-1.953135 5.70312,-1.953125 2.5261,0 4.49214,0.72915 5.89844,2.1875 1.4062,1.43229 2.10938,3.476562 2.10938,6.132812 v 24.570313 h 8.63281 V 36.449219 c 0,-5.26041 -1.19795,-9.3229 -3.59375,-12.1875 -2.3958,-2.89062 -5.78125,-4.335938 -10.15625,-4.335938 -2.474,0 -4.68743,0.651045 -6.64063,1.953125 -1.529,1.03315 -2.84251,2.43297 -3.94531,4.1875 V 4.2617188 Z M 116.20312,19.925781 c -2.3698,0 -4.51831,0.651045 -6.44531,1.953125 -1.5161,1.00388 -2.80246,2.352383 -3.86719,4.033203 v -5.40039 h -8.632808 v 57.03125 h 8.632808 V 55.867188 c 0.86283,1.65315 2.03103,2.983668 3.51563,3.980468 1.849,1.19792 4.01037,1.796875 6.48437,1.796875 2.94273,0 5.45577,-0.651035 7.53907,-1.953125 2.0834,-1.32812 3.67182,-3.229165 4.76562,-5.703125 1.0937,-2.5 1.64063,-5.494785 1.64063,-8.984375 v -8.28125 c 0,-3.54166 -0.53386,-6.5625 -1.60156,-9.0625 -1.06773,-2.52604 -2.6302,-4.440107 -4.6875,-5.742187 -2.03123,-1.32814 -4.47913,-1.992188 -7.34376,-1.992188 z m 114.42774,0 c -3.6458,0 -6.75784,0.742193 -9.33594,2.226563 -2.5782,1.48437 -4.54424,3.645835 -5.89844,6.484375 -1.3541,2.83856 -2.03125,6.263027 -2.03125,10.273437 v 4.570313 c 0,3.85416 0.70308,7.148432 2.10938,9.882812 1.4062,2.70833 3.45051,4.765625 6.13281,6.171875 2.7083,1.40625 5.95056,2.109375 9.72656,2.109375 2.5521,0 5.09119,-0.52084 7.61719,-1.5625 2.5521,-1.06771 4.8438,-2.565107 6.875,-4.492187 l -5.66406,-5.46875 c -1.224,1.11979 -2.61719,1.992187 -4.17969,2.617187 -1.5365,0.59896 -3.08594,0.898438 -4.64844,0.898438 -3.151,0 -5.58588,-0.859375 -7.30468,-2.578125 -1.5794,-1.62808 -2.41198,-3.899025 -2.51758,-6.796875 h 25.36914 v -2.65625 c 0,-4.53126 -0.63796,-8.424478 -1.91406,-11.679688 -1.276,-3.25521 -3.13804,-5.729165 -5.58594,-7.421875 -2.4219,-1.71875 -5.3385,-2.578125 -8.75,-2.578125 z m 109.87109,0 c -3.5156,0 -6.44526,0.481773 -8.78906,1.445313 -2.3437,0.96354 -4.12766,2.395815 -5.35156,4.296875 -1.1979,1.90104 -1.79688,4.270835 -1.79688,7.109375 0,2.91667 0.61204,5.15625 1.83594,6.71875 1.224,1.5625 2.74741,2.630215 4.57031,3.203125 1.8231,0.54689 4.10154,0.950527 6.83594,1.210937 0.1042,0 0.2083,0.01296 0.3125,0.03906 h 0.3125 l 0.85938,0.07813 0.85937,0.07813 c 2.1615,0.15624 3.84116,0.351567 5.03906,0.585937 1.1979,0.20834 2.18735,0.611978 2.96875,1.210938 0.8072,0.59896 1.21094,1.510425 1.21094,2.734375 0,1.71876 -0.76819,3.02082 -2.30469,3.90625 -1.5365,0.85937 -3.80207,1.289062 -6.79687,1.289062 -2.0573,0 -4.16663,-0.390625 -6.32813,-1.171875 -2.1354,-0.80729 -4.27085,-1.992197 -6.40625,-3.554687 l -5.19531,6.40625 c 1.5365,1.35418 3.24219,2.486977 5.11719,3.398437 1.875,0.91146 3.88022,1.601553 6.01562,2.070313 2.1356,0.4427 4.40108,0.664062 6.79688,0.664062 3.7761,0 6.92712,-0.494785 9.45312,-1.484375 2.5522,-0.98958 4.46619,-2.44791 5.74219,-4.375 1.2761,-1.92708 1.91406,-4.335942 1.91406,-7.226562 0,-3.25521 -0.69011,-5.729155 -2.07031,-7.421875 -1.3542,-1.6927 -3.03386,-2.825528 -5.03906,-3.398438 -1.9791,-0.57292 -4.42715,-0.976567 -7.34375,-1.210937 -0.078,-0.026 -0.16924,-0.03906 -0.27344,-0.03906 h -0.23437 c -0.1823,-0.026 -0.37754,-0.03906 -0.58594,-0.03906 -0.1823,-0.026 -0.35151,-0.05212 -0.50781,-0.07813 -2.0833,-0.13021 -3.68489,-0.28646 -4.80469,-0.46875 -1.1198,-0.18229 -2.0573,-0.520815 -2.8125,-1.015625 -0.7291,-0.52083 -1.09375,-1.276045 -1.09375,-2.265625 0,-1.61458 0.65102,-2.825523 1.95312,-3.632813 1.3281,-0.83334 3.28128,-1.25 5.85938,-1.25 1.8489,0 3.75002,0.3125 5.70312,0.9375 1.9792,0.625 3.94534,1.549488 5.89844,2.773438 l 5.19531,-6.289063 c -1.6145,-1.14583 -3.30722,-2.109375 -5.07812,-2.890625 -1.7708,-0.78125 -3.63284,-1.367172 -5.58594,-1.757812 -1.9531,-0.39062 -3.97139,-0.585938 -6.05469,-0.585938 z m -73.0039,0.585938 v 24.726562 c 0,5.20833 1.21091,9.244795 3.63281,12.109375 2.4219,2.86459 5.8594,4.296875 10.3125,4.296875 2.6823,0 4.93491,-0.690092 6.75781,-2.070312 1.4913,-1.13424 2.64596,-2.483226 3.47656,-4.041016 v 5.525391 h 8.59375 V 20.511719 h -8.59375 v 25.3125 c 0,2.42189 -0.67705,4.29688 -2.03125,5.625 -1.3541,1.3021 -3.25522,1.953125 -5.70312,1.953125 -2.474,0 -4.40105,-0.716148 -5.78125,-2.148438 -1.3542,-1.43229 -2.03125,-3.46354 -2.03125,-6.09375 V 20.511719 Z m -36.86719,7.226562 c 2.3438,0 4.2188,0.846353 5.625,2.539063 1.4063,1.69271 2.22664,4.075517 2.46094,7.148437 l 0.0391,0.234375 h -17.24024 c 0.12033,-3.01348 0.90003,-5.389155 2.35743,-7.109375 1.5885,-1.875 3.84111,-2.8125 6.75781,-2.8125 z m -117.24024,0.03906 c 2.47393,0 4.38799,0.794272 5.74219,2.382812 1.3802,1.5625 2.07031,3.763023 2.07031,6.601563 v 8.242187 c 0,2.78646 -0.69011,4.947915 -2.07031,6.484375 -1.3542,1.53646 -3.26826,2.304678 -5.74219,2.304688 -1.5886,0 -2.94267,-0.299478 -4.0625,-0.898438 -1.1198,-0.625 -1.97912,-1.51042 -2.57812,-2.65625 -0.5729,-1.17188 -0.85938,-2.57813 -0.85938,-4.21875 V 35.433594 c 0,-1.61458 0.28648,-2.994795 0.85938,-4.140625 0.599,-1.14585 1.45832,-2.018228 2.57812,-2.617188 1.11983,-0.59896 2.4739,-0.898437 4.0625,-0.898437 z" /></g><g
           id="g33"
           transform="translate(2023,-3061)" /><g
           id="g43"
           transform="translate(829.30695,419.31104)" /><g
           id="g53"
           transform="translate(2023,-3061)" /></g></g></g></svg>
